<svg width="1024" height="1024" version="1.1" xmlns="http://www.w3.org/2000/svg" desc="Created with imagetracer.js version 1.2.6" ><path fill="rgb(3,3,3)" stroke="rgb(3,3,3)" stroke-width="2" opacity="0.9372549019607843" d="M 532.5 165 L 585.5 165 Q 594.5 167.4 599 174.5 L 603 181.5 L 605 197.5 L 601 212.5 L 591.5 223 L 583.5 226 L 553.5 226 L 552 227.5 L 553 263.5 Q 550.8 264.8 553.5 266 L 593.5 266 L 598.5 267 Q 613.5 272 623 282.5 Q 630.7 290.8 634 303.5 L 640 342.5 L 642.5 345 L 654.5 345 L 655.5 346 L 666.5 346 L 667.5 347 L 677.5 347 L 678.5 348 L 690.5 348 L 691.5 349 L 704.5 349 L 715.5 351 L 725.5 351 L 736.5 354 L 745 361.5 Q 751.2 368.3 751 381.5 Q 749.1 393.6 741.5 400 L 733.5 405 L 724.5 407 L 702.5 408 L 701.5 409 L 691.5 409 L 690.5 410 L 678.5 410 L 667.5 412 L 652 412 Q 650.9 414.7 653.5 414 Q 713.9 439.6 754 485.5 Q 773.9 507.6 786 537.5 L 794 562.5 L 798 583.5 L 798 591.5 L 799.5 593 L 815.5 593 L 816.5 594 L 828.5 594 L 829.5 595 L 851.5 595 Q 852.8 597.3 857.5 596 Q 867.4 599.1 873 606.5 Q 879.8 613.2 879 627.5 Q 876.6 639.6 868.5 646 L 856.5 652 L 799.5 655 L 798 656.5 L 797 670.5 L 791 695.5 Q 783.9 717.9 773 736.5 Q 756.6 762.1 734.5 782 Q 714 801 688.5 815 L 646.5 835 L 617.5 845 L 595.5 851 L 555.5 858 L 532.5 859 L 531.5 860 L 490.5 860 L 489.5 859 L 478.5 859 L 470.5 857 L 462.5 857 L 438.5 852 L 433.5 852 L 406.5 845 L 363.5 829 Q 307.4 804.6 270 761.5 Q 251 739.5 239 710.5 L 229 678.5 L 226 655 L 208.5 655 L 207.5 654 L 195.5 654 L 194.5 653 L 168.5 652 Q 155.9 649.1 150 639.5 Q 144 632.5 146 617.5 Q 148.9 607.9 155.5 602 Q 160.3 597.3 168.5 596 L 207.5 594 L 208.5 593 L 224.5 593 L 226 591.5 L 231 560.5 L 243 527.5 L 258 501.5 L 279 476 L 283 473.5 L 284.5 471 L 315.5 445 L 333.5 433 L 363 416.5 L 365 411 L 314.5 407 Q 301.3 404.7 295 395.5 Q 288.3 388.7 290 373.5 Q 292.9 361.9 301.5 356 L 314.5 351 L 332.5 350 L 333.5 349 L 346.5 349 L 347.5 348 L 368.5 347 L 369.5 346 L 395.5 345 L 400 342.5 L 424 292.5 Q 429 282.5 437.5 276 Q 445.8 268.8 458.5 266 L 493.5 266 L 495 264.5 L 495 203.5 L 496 198.5 Q 500.7 181.7 513.5 173 L 524.5 167 L 532.5 165 Z M 542 182 Q 540 185 534 183 L 525 187 Q 514 194 512 209 L 512 265 L 514 266 L 534 266 L 535 262 L 535 225 L 534 224 L 535 214 L 541 209 L 558 209 L 556 202 Q 555 191 558 185 L 558 182 L 542 182 Z M 579 182 L 576 185 L 574 191 Q 573 200 576 206 Q 577 209 582 208 L 585 205 L 587 198 L 587 193 L 585 186 Q 584 181 579 182 Z M 493 283 L 492 284 L 460 284 L 450 289 L 440 300 Q 416 354 389 405 L 390 407 L 396 404 L 432 394 L 460 389 L 488 387 L 489 386 L 536 386 L 537 387 L 549 387 L 559 389 L 567 389 L 599 395 L 632 405 L 628 376 L 627 375 L 626 361 L 620 330 L 620 326 L 558 326 L 552 319 L 553 313 L 558 308 L 616 308 L 611 296 Q 605 287 593 284 L 512 284 L 511 283 L 493 283 Z M 384 363 L 383 364 L 371 364 L 370 365 L 359 365 L 358 366 L 322 368 L 313 370 L 308 376 L 309 385 L 317 389 L 326 389 L 327 390 L 336 390 L 337 391 L 347 391 L 348 392 L 375 394 L 389 366 L 389 363 L 384 363 Z M 644 363 L 649 395 L 728 388 L 733 382 Q 734 375 731 373 L 726 369 Q 719 371 718 368 L 692 367 L 691 366 L 670 365 L 669 364 L 644 363 Z M 489 404 L 488 405 L 477 405 L 476 406 L 461 407 L 430 413 L 405 420 L 379 430 Q 330 451 296 485 Q 272 507 258 539 L 248 568 L 245 585 L 245 592 L 244 593 L 244 606 L 243 607 L 244 657 L 251 691 Q 264 728 288 755 Q 321 790 369 811 Q 397 824 430 832 L 462 838 L 477 839 L 478 840 L 488 840 L 489 841 L 536 841 L 537 840 L 557 839 L 558 838 L 564 838 L 587 834 L 607 829 L 645 816 L 677 801 Q 700 788 720 771 Q 749 747 766 711 L 778 674 L 780 655 L 781 654 L 781 641 L 782 640 L 781 595 L 780 594 L 778 575 L 773 556 Q 761 519 738 495 Q 696 448 632 424 L 597 413 L 592 413 L 577 409 L 552 406 L 551 405 L 542 405 L 541 404 L 489 404 Z M 801 610 L 799 612 L 800 617 L 800 632 L 799 637 L 828 636 L 829 635 L 845 635 L 856 633 Q 862 630 860 620 L 854 614 L 835 613 L 834 612 L 820 612 L 819 611 L 802 611 L 801 610 Z M 206 611 L 205 612 L 193 612 L 192 613 L 175 613 L 169 615 L 164 622 Q 163 628 166 631 L 172 634 L 202 635 L 203 636 L 225 637 L 225 611 L 206 611 Z " /><path fill="rgb(3,3,3)" stroke="rgb(3,3,3)" stroke-width="2" opacity="0.9372549019607843" d="M 507.5 423 L 512.5 424 L 529.5 424 L 530.5 425 L 537.5 425 L 554.5 428 Q 557.4 430.6 563.5 430 L 590.5 440 Q 632.1 459.4 660 492.5 Q 683.1 519.9 696 557.5 L 701 576.5 L 701 581.5 L 703 588.5 L 703 596.5 L 704 597.5 L 704 635.5 L 703 636.5 L 701 655.5 L 697 671.5 L 690 690.5 Q 673.4 728.4 645.5 755 Q 618.5 781.5 580.5 797 L 554.5 805 L 531.5 808 L 530.5 809 L 495.5 809 L 494.5 808 L 479.5 807 L 462.5 803 Q 437.8 795.7 417.5 784 Q 390.4 768.1 370 745.5 Q 344 718 330 678.5 L 324 657.5 L 321 640.5 L 320 602.5 L 321 601.5 L 321 592.5 L 322 591.5 L 324 574.5 L 334 542.5 Q 351.7 501.7 382.5 474 Q 407.3 450.8 441.5 437 L 469.5 428 L 486.5 425 L 493.5 425 L 494.5 424 L 506.5 424 L 507.5 423 Z M 506 445 L 505 446 L 494 446 L 477 449 L 448 458 Q 418 470 398 490 Q 378 508 364 532 Q 354 549 348 570 L 342 601 L 342 629 L 343 630 L 343 639 L 349 666 Q 360 700 381 725 Q 401 748 428 764 L 446 773 L 469 781 L 481 784 L 492 785 L 493 786 L 502 786 L 503 787 L 535 786 L 564 779 L 596 765 L 623 746 Q 646 726 662 698 L 675 668 L 683 628 L 683 606 L 682 605 L 681 590 L 677 571 L 672 556 L 660 531 L 638 501 Q 613 472 575 457 L 557 451 L 539 447 L 506 445 Z " /><path fill="rgb(3,3,3)" stroke="rgb(3,3,3)" stroke-width="2" opacity="0.9372549019607843" d="M 476 484 L 501 484 L 501 519 L 521 519 L 521 484 L 546 484 L 546 492.5 L 547 493.5 L 547 507.5 Q 544.5 509 546 514.5 L 547 516.5 L 547 518.5 Q 546.5 521.5 553.5 520 L 575.5 526 Q 586.9 530.1 594 538.5 L 603 556.5 L 604 574.5 L 602 584.5 L 599 591.5 L 589.5 603 L 584 606.5 Q 583.2 609.1 586.5 608 Q 598.5 613 606 622.5 Q 611.7 629.3 614 639.5 L 615 644.5 L 615 659.5 L 613 670.5 L 609 681.5 Q 603.8 691.3 595.5 698 Q 586.8 704.8 574.5 708 L 560.5 711 L 547 712 Q 545 718 546 728.5 L 547 729.5 L 547 746.5 L 545.5 748 L 521 748 L 521 713.5 L 519.5 712 L 518.5 713 L 501 713 L 501 748 L 476 748 L 476 713.5 L 474.5 712 L 427.5 712 Q 426.3 711.8 427 705.5 L 429 698.5 L 430 685.5 L 432.5 682 L 450.5 682 L 456 677.5 L 457 674.5 L 457 555.5 L 451.5 549 Q 443.6 545.4 430.5 547 Q 428.8 549.8 427 545.5 L 428 520 L 476 520 L 476 484 Z M 503 548 L 501 550 L 501 599 L 530 599 L 543 596 L 551 591 Q 556 586 558 578 L 557 566 L 554 560 Q 549 552 539 550 L 529 548 L 503 548 Z M 501 625 L 501 682 L 503 683 L 507 682 L 536 682 L 548 679 L 559 673 Q 564 668 567 660 Q 569 645 563 639 L 558 633 L 550 629 L 539 626 Q 533 628 532 625 L 501 625 Z " /><path fill="rgb(0,0,0)" stroke="rgb(0,0,0)" stroke-width="2" opacity="0" d="M 0 0 L 1024 0 L 1024 1024 L 0 1024 L 0 0 Z M 533 165 L 525 167 L 514 173 Q 501 182 496 199 L 495 204 L 495 265 L 494 266 L 459 266 Q 446 269 438 276 Q 429 283 424 293 L 400 343 L 396 345 L 370 346 L 369 347 L 348 348 L 347 349 L 334 349 L 333 350 L 315 351 L 302 356 Q 293 362 290 374 Q 288 389 295 396 Q 301 405 315 407 L 365 411 L 363 417 L 334 433 L 316 445 L 285 471 L 283 474 L 279 476 L 258 502 L 243 528 L 231 561 L 226 592 L 225 593 L 209 593 L 208 594 L 169 596 Q 160 597 156 602 Q 149 608 146 618 Q 144 633 150 640 Q 156 649 169 652 L 195 653 L 196 654 L 208 654 L 209 655 L 226 655 L 229 679 L 239 711 Q 251 739 270 762 Q 307 805 364 829 L 407 845 L 434 852 L 439 852 L 463 857 L 471 857 L 479 859 L 490 859 L 491 860 L 532 860 L 533 859 L 556 858 L 596 851 L 618 845 L 647 835 L 689 815 Q 714 801 735 782 Q 757 762 773 737 Q 784 718 791 696 L 797 671 L 798 657 L 800 655 L 857 652 L 869 646 Q 877 640 879 628 Q 880 613 873 607 Q 867 599 858 596 Q 853 597 852 595 L 830 595 L 829 594 L 817 594 L 816 593 L 800 593 L 798 592 L 798 584 L 794 563 L 786 538 Q 774 508 754 486 Q 714 440 654 414 Q 651 415 652 412 L 668 412 L 679 410 L 691 410 L 692 409 L 702 409 L 703 408 L 725 407 L 734 405 L 742 400 Q 749 394 751 382 Q 751 368 745 362 L 737 354 L 726 351 L 716 351 L 705 349 L 692 349 L 691 348 L 679 348 L 678 347 L 668 347 L 667 346 L 656 346 L 655 345 L 643 345 L 640 343 L 634 304 Q 631 291 623 283 Q 613 272 599 267 L 594 266 L 554 266 Q 551 265 553 264 L 552 228 L 554 226 L 584 226 L 592 223 L 601 213 L 605 198 L 603 182 L 599 175 Q 595 167 586 165 L 533 165 Z " /><path fill="rgb(0,0,0)" stroke="rgb(0,0,0)" stroke-width="2" opacity="0" d="M 541.5 182 L 557.5 182 L 558 184.5 Q 554.6 190.6 556 201.5 L 558 209 L 540.5 209 L 535 213.5 L 534 223.5 L 535 224.5 L 535 261.5 L 534 266 L 513.5 266 L 512 264.5 L 512 208.5 Q 514.5 194 524.5 187 L 533.5 183 Q 539.8 184.7 541.5 182 Z " /><path fill="rgb(0,0,0)" stroke="rgb(0,0,0)" stroke-width="2" opacity="0" d="M 578.5 182 Q 584.3 181.3 585 185.5 L 587 192.5 L 587 197.5 L 585 204.5 L 581.5 208 Q 576.8 208.8 576 205.5 Q 572.9 200.1 574 190.5 L 576 184.5 L 578.5 182 Z " /><path fill="rgb(0,0,0)" stroke="rgb(0,0,0)" stroke-width="2" opacity="0" d="M 492.5 283 L 510.5 283 L 511.5 284 L 592.5 284 Q 604.8 286.7 611 295.5 L 616 308 L 557.5 308 L 553 312.5 L 552 318.5 L 557.5 326 L 619.5 326 L 620 329.5 L 626 360.5 L 627 374.5 L 628 375.5 L 632 405 L 598.5 395 L 566.5 389 L 558.5 389 L 548.5 387 L 536.5 387 L 535.5 386 L 488.5 386 L 487.5 387 L 459.5 389 L 431.5 394 L 395.5 404 L 389.5 407 L 389 404.5 Q 416 353.5 440 299.5 L 449.5 289 L 459.5 284 L 491.5 284 L 492.5 283 Z " /><path fill="rgb(0,0,0)" stroke="rgb(0,0,0)" stroke-width="2" opacity="0" d="M 383.5 363 L 389 363 L 389 365.5 L 375 394 L 347.5 392 L 346.5 391 L 336.5 391 L 335.5 390 L 326.5 390 L 325.5 389 L 316.5 389 L 309 384.5 L 308 375.5 L 312.5 370 L 321.5 368 L 357.5 366 L 358.5 365 L 369.5 365 L 370.5 364 L 382.5 364 L 383.5 363 Z " /><path fill="rgb(0,0,0)" stroke="rgb(0,0,0)" stroke-width="2" opacity="0" d="M 644 363 L 668.5 364 L 669.5 365 L 690.5 366 L 691.5 367 L 717.5 368 Q 719.3 370.8 725.5 369 L 731 372.5 Q 733.8 375.2 733 381.5 L 727.5 388 L 649 395 L 644 363 Z " /><path fill="rgb(0,0,0)" stroke="rgb(0,0,0)" stroke-width="2" opacity="0" d="M 488.5 404 L 540.5 404 L 541.5 405 L 550.5 405 L 551.5 406 L 576.5 409 L 591.5 413 L 596.5 413 L 631.5 424 Q 696.1 447.9 738 494.5 Q 761.1 519.4 773 555.5 L 778 574.5 L 780 593.5 L 781 594.5 L 782 639.5 L 781 640.5 L 781 653.5 L 780 654.5 L 778 673.5 L 766 710.5 Q 748.6 746.6 719.5 771 Q 700.1 788.1 676.5 801 L 644.5 816 L 606.5 829 L 586.5 834 L 563.5 838 L 557.5 838 L 556.5 839 L 536.5 840 L 535.5 841 L 488.5 841 L 487.5 840 L 477.5 840 L 476.5 839 L 461.5 838 L 429.5 832 Q 396.7 823.8 368.5 811 Q 321 790 288 754.5 Q 263.8 728.2 251 690.5 L 244 656.5 L 243 606.5 L 244 605.5 L 244 592.5 L 245 591.5 L 245 584.5 L 248 567.5 L 258 538.5 Q 272.3 507.3 295.5 485 Q 330.4 450.9 378.5 430 L 404.5 420 L 429.5 413 L 460.5 407 L 475.5 406 L 476.5 405 L 487.5 405 L 488.5 404 Z M 508 423 L 507 424 L 495 424 L 494 425 L 487 425 L 470 428 L 442 437 Q 407 451 383 474 Q 352 502 334 543 L 324 575 L 322 592 L 321 593 L 321 602 L 320 603 L 321 641 L 324 658 L 330 679 Q 344 718 370 746 Q 390 768 418 784 Q 438 796 463 803 L 480 807 L 495 808 L 496 809 L 531 809 L 532 808 L 555 805 L 581 797 Q 618 781 646 755 Q 673 728 690 691 L 697 672 L 701 656 L 703 637 L 704 636 L 704 598 L 703 597 L 703 589 L 701 582 L 701 577 L 696 558 Q 683 520 660 493 Q 632 459 591 440 L 564 430 Q 557 431 555 428 L 538 425 L 531 425 L 530 424 L 513 424 L 508 423 Z " /><path fill="rgb(0,0,0)" stroke="rgb(0,0,0)" stroke-width="2" opacity="0" d="M 505.5 445 L 538.5 447 L 556.5 451 L 574.5 457 Q 612.5 472.5 638 500.5 L 660 530.5 L 672 555.5 L 677 570.5 L 681 589.5 L 682 604.5 L 683 605.5 L 683 627.5 L 675 667.5 L 662 697.5 Q 646.3 725.8 622.5 746 L 595.5 765 L 563.5 779 L 534.5 786 L 502.5 787 L 501.5 786 L 492.5 786 L 491.5 785 L 480.5 784 L 468.5 781 L 445.5 773 L 427.5 764 Q 400.8 747.8 381 724.5 Q 360.1 699.9 349 665.5 L 343 638.5 L 343 629.5 L 342 628.5 L 342 600.5 L 348 569.5 Q 354.2 548.7 364 531.5 Q 377.9 507.9 397.5 490 Q 418.5 470 447.5 458 L 476.5 449 L 493.5 446 L 504.5 446 L 505.5 445 Z M 476 484 L 476 520 L 428 520 L 427 546 Q 429 550 431 547 Q 444 545 452 549 L 457 556 L 457 675 L 456 678 L 451 682 L 433 682 L 430 686 L 429 699 L 427 706 Q 426 712 428 712 L 475 712 L 476 714 L 476 748 L 501 748 L 501 713 L 519 713 L 520 712 L 521 714 L 521 748 L 546 748 L 547 747 L 547 730 L 546 729 Q 545 718 547 712 L 561 711 L 575 708 Q 587 705 596 698 Q 604 691 609 682 L 613 671 L 615 660 L 615 645 L 614 640 Q 612 629 606 623 Q 598 613 587 608 Q 583 609 584 607 L 590 603 L 599 592 L 602 585 L 604 575 L 603 557 L 594 539 Q 587 530 576 526 L 554 520 Q 546 521 547 519 L 547 517 L 546 515 Q 545 509 547 508 L 547 494 L 546 493 L 546 484 L 521 484 L 521 519 L 501 519 L 501 484 L 476 484 Z " /><path fill="rgb(0,0,0)" stroke="rgb(0,0,0)" stroke-width="2" opacity="0" d="M 502.5 548 L 528.5 548 L 538.5 550 Q 548.6 552.4 554 559.5 L 557 565.5 L 558 577.5 Q 556.1 586.1 550.5 591 L 542.5 596 L 529.5 599 L 501 599 L 501 549.5 L 502.5 548 Z " /><path fill="rgb(0,0,0)" stroke="rgb(0,0,0)" stroke-width="2" opacity="0" d="M 800.5 610 L 801.5 611 L 818.5 611 L 819.5 612 L 833.5 612 L 834.5 613 L 853.5 614 L 860 619.5 Q 861.8 630.3 855.5 633 L 844.5 635 L 828.5 635 L 827.5 636 L 799 637 L 800 631.5 L 800 616.5 L 799 611.5 L 800.5 610 Z " /><path fill="rgb(0,0,0)" stroke="rgb(0,0,0)" stroke-width="2" opacity="0" d="M 205.5 611 L 225 611 L 225 637 L 202.5 636 L 201.5 635 L 171.5 634 L 166 630.5 Q 163.2 627.8 164 621.5 L 168.5 615 L 174.5 613 L 191.5 613 L 192.5 612 L 204.5 612 L 205.5 611 Z " /><path fill="rgb(0,0,0)" stroke="rgb(0,0,0)" stroke-width="2" opacity="0" d="M 501 625 L 531.5 625 Q 533 627.5 538.5 626 L 549.5 629 L 557.5 633 L 563 638.5 Q 568.8 645.2 567 659.5 Q 564.5 668 558.5 673 L 547.5 679 L 535.5 682 L 506.5 682 L 502.5 683 L 501 681.5 L 501 625 Z " /></svg>